<mxfile host="app.diagrams.net" modified="2020-12-10T20:51:34.042Z" agent="5.0 (Windows NT 10.0; Win64; x64) AppleWebKit/537.36 (KHTML, like Gecko) Chrome/86.0.4240.198 Safari/537.36" etag="2X_WkEAQqNxXhKGlrErz" version="14.0.0" type="github">
  <diagram id="Dhi_fkTTJGYg415lO_26" name="Page-1">
    <mxGraphModel dx="707" dy="413" grid="1" gridSize="10" guides="1" tooltips="1" connect="1" arrows="1" fold="1" page="1" pageScale="1" pageWidth="827" pageHeight="1169" math="0" shadow="0">
      <root>
        <mxCell id="0" />
        <mxCell id="1" parent="0" />
        <mxCell id="8T0tq_az6n-a0p4zAt-5-1" value="会員" style="shape=table;startSize=30;container=1;collapsible=1;childLayout=tableLayout;fixedRows=1;rowLines=0;fontStyle=1;align=center;resizeLast=1;" vertex="1" parent="1">
          <mxGeometry x="50" y="40" width="180" height="290" as="geometry" />
        </mxCell>
        <mxCell id="8T0tq_az6n-a0p4zAt-5-2" value="" style="shape=partialRectangle;collapsible=0;dropTarget=0;pointerEvents=0;fillColor=none;top=0;left=0;bottom=1;right=0;points=[[0,0.5],[1,0.5]];portConstraint=eastwest;" vertex="1" parent="8T0tq_az6n-a0p4zAt-5-1">
          <mxGeometry y="30" width="180" height="30" as="geometry" />
        </mxCell>
        <mxCell id="8T0tq_az6n-a0p4zAt-5-3" value="PK" style="shape=partialRectangle;connectable=0;fillColor=none;top=0;left=0;bottom=0;right=0;fontStyle=1;overflow=hidden;" vertex="1" parent="8T0tq_az6n-a0p4zAt-5-2">
          <mxGeometry width="30" height="30" as="geometry" />
        </mxCell>
        <mxCell id="8T0tq_az6n-a0p4zAt-5-4" value="UniqueID" style="shape=partialRectangle;connectable=0;fillColor=none;top=0;left=0;bottom=0;right=0;align=left;spacingLeft=6;fontStyle=5;overflow=hidden;" vertex="1" parent="8T0tq_az6n-a0p4zAt-5-2">
          <mxGeometry x="30" width="150" height="30" as="geometry" />
        </mxCell>
        <mxCell id="8T0tq_az6n-a0p4zAt-5-5" value="" style="shape=partialRectangle;collapsible=0;dropTarget=0;pointerEvents=0;fillColor=none;top=0;left=0;bottom=0;right=0;points=[[0,0.5],[1,0.5]];portConstraint=eastwest;" vertex="1" parent="8T0tq_az6n-a0p4zAt-5-1">
          <mxGeometry y="60" width="180" height="30" as="geometry" />
        </mxCell>
        <mxCell id="8T0tq_az6n-a0p4zAt-5-6" value="" style="shape=partialRectangle;connectable=0;fillColor=none;top=0;left=0;bottom=0;right=0;editable=1;overflow=hidden;" vertex="1" parent="8T0tq_az6n-a0p4zAt-5-5">
          <mxGeometry width="30" height="30" as="geometry" />
        </mxCell>
        <mxCell id="8T0tq_az6n-a0p4zAt-5-7" value="登録日" style="shape=partialRectangle;connectable=0;fillColor=none;top=0;left=0;bottom=0;right=0;align=left;spacingLeft=6;overflow=hidden;" vertex="1" parent="8T0tq_az6n-a0p4zAt-5-5">
          <mxGeometry x="30" width="150" height="30" as="geometry" />
        </mxCell>
        <mxCell id="8T0tq_az6n-a0p4zAt-5-8" value="" style="shape=partialRectangle;collapsible=0;dropTarget=0;pointerEvents=0;fillColor=none;top=0;left=0;bottom=0;right=0;points=[[0,0.5],[1,0.5]];portConstraint=eastwest;" vertex="1" parent="8T0tq_az6n-a0p4zAt-5-1">
          <mxGeometry y="90" width="180" height="30" as="geometry" />
        </mxCell>
        <mxCell id="8T0tq_az6n-a0p4zAt-5-9" value="" style="shape=partialRectangle;connectable=0;fillColor=none;top=0;left=0;bottom=0;right=0;editable=1;overflow=hidden;" vertex="1" parent="8T0tq_az6n-a0p4zAt-5-8">
          <mxGeometry width="30" height="30" as="geometry" />
        </mxCell>
        <mxCell id="8T0tq_az6n-a0p4zAt-5-10" value="更新日" style="shape=partialRectangle;connectable=0;fillColor=none;top=0;left=0;bottom=0;right=0;align=left;spacingLeft=6;overflow=hidden;" vertex="1" parent="8T0tq_az6n-a0p4zAt-5-8">
          <mxGeometry x="30" width="150" height="30" as="geometry" />
        </mxCell>
        <mxCell id="8T0tq_az6n-a0p4zAt-5-11" value="" style="shape=partialRectangle;collapsible=0;dropTarget=0;pointerEvents=0;fillColor=none;top=0;left=0;bottom=0;right=0;points=[[0,0.5],[1,0.5]];portConstraint=eastwest;" vertex="1" parent="8T0tq_az6n-a0p4zAt-5-1">
          <mxGeometry y="120" width="180" height="30" as="geometry" />
        </mxCell>
        <mxCell id="8T0tq_az6n-a0p4zAt-5-12" value="" style="shape=partialRectangle;connectable=0;fillColor=none;top=0;left=0;bottom=0;right=0;editable=1;overflow=hidden;" vertex="1" parent="8T0tq_az6n-a0p4zAt-5-11">
          <mxGeometry width="30" height="30" as="geometry" />
        </mxCell>
        <mxCell id="8T0tq_az6n-a0p4zAt-5-13" value="氏名" style="shape=partialRectangle;connectable=0;fillColor=none;top=0;left=0;bottom=0;right=0;align=left;spacingLeft=6;overflow=hidden;" vertex="1" parent="8T0tq_az6n-a0p4zAt-5-11">
          <mxGeometry x="30" width="150" height="30" as="geometry" />
        </mxCell>
        <mxCell id="8T0tq_az6n-a0p4zAt-5-14" value="商品" style="shape=table;startSize=30;container=1;collapsible=1;childLayout=tableLayout;fixedRows=1;rowLines=0;fontStyle=1;align=center;resizeLast=1;" vertex="1" parent="1">
          <mxGeometry x="260" y="40" width="180" height="290" as="geometry" />
        </mxCell>
        <mxCell id="8T0tq_az6n-a0p4zAt-5-15" value="" style="shape=partialRectangle;collapsible=0;dropTarget=0;pointerEvents=0;fillColor=none;top=0;left=0;bottom=1;right=0;points=[[0,0.5],[1,0.5]];portConstraint=eastwest;" vertex="1" parent="8T0tq_az6n-a0p4zAt-5-14">
          <mxGeometry y="30" width="180" height="30" as="geometry" />
        </mxCell>
        <mxCell id="8T0tq_az6n-a0p4zAt-5-16" value="PK" style="shape=partialRectangle;connectable=0;fillColor=none;top=0;left=0;bottom=0;right=0;fontStyle=1;overflow=hidden;" vertex="1" parent="8T0tq_az6n-a0p4zAt-5-15">
          <mxGeometry width="30" height="30" as="geometry" />
        </mxCell>
        <mxCell id="8T0tq_az6n-a0p4zAt-5-17" value="UniqueID" style="shape=partialRectangle;connectable=0;fillColor=none;top=0;left=0;bottom=0;right=0;align=left;spacingLeft=6;fontStyle=5;overflow=hidden;" vertex="1" parent="8T0tq_az6n-a0p4zAt-5-15">
          <mxGeometry x="30" width="150" height="30" as="geometry" />
        </mxCell>
        <mxCell id="8T0tq_az6n-a0p4zAt-5-18" value="" style="shape=partialRectangle;collapsible=0;dropTarget=0;pointerEvents=0;fillColor=none;top=0;left=0;bottom=0;right=0;points=[[0,0.5],[1,0.5]];portConstraint=eastwest;" vertex="1" parent="8T0tq_az6n-a0p4zAt-5-14">
          <mxGeometry y="60" width="180" height="30" as="geometry" />
        </mxCell>
        <mxCell id="8T0tq_az6n-a0p4zAt-5-19" value="" style="shape=partialRectangle;connectable=0;fillColor=none;top=0;left=0;bottom=0;right=0;editable=1;overflow=hidden;" vertex="1" parent="8T0tq_az6n-a0p4zAt-5-18">
          <mxGeometry width="30" height="30" as="geometry" />
        </mxCell>
        <mxCell id="8T0tq_az6n-a0p4zAt-5-20" value="販売ステータス" style="shape=partialRectangle;connectable=0;fillColor=none;top=0;left=0;bottom=0;right=0;align=left;spacingLeft=6;overflow=hidden;" vertex="1" parent="8T0tq_az6n-a0p4zAt-5-18">
          <mxGeometry x="30" width="150" height="30" as="geometry" />
        </mxCell>
        <mxCell id="8T0tq_az6n-a0p4zAt-5-21" value="" style="shape=partialRectangle;collapsible=0;dropTarget=0;pointerEvents=0;fillColor=none;top=0;left=0;bottom=0;right=0;points=[[0,0.5],[1,0.5]];portConstraint=eastwest;" vertex="1" parent="8T0tq_az6n-a0p4zAt-5-14">
          <mxGeometry y="90" width="180" height="30" as="geometry" />
        </mxCell>
        <mxCell id="8T0tq_az6n-a0p4zAt-5-22" value="" style="shape=partialRectangle;connectable=0;fillColor=none;top=0;left=0;bottom=0;right=0;editable=1;overflow=hidden;" vertex="1" parent="8T0tq_az6n-a0p4zAt-5-21">
          <mxGeometry width="30" height="30" as="geometry" />
        </mxCell>
        <mxCell id="8T0tq_az6n-a0p4zAt-5-23" value="商品名" style="shape=partialRectangle;connectable=0;fillColor=none;top=0;left=0;bottom=0;right=0;align=left;spacingLeft=6;overflow=hidden;" vertex="1" parent="8T0tq_az6n-a0p4zAt-5-21">
          <mxGeometry x="30" width="150" height="30" as="geometry" />
        </mxCell>
        <mxCell id="8T0tq_az6n-a0p4zAt-5-24" value="" style="shape=partialRectangle;collapsible=0;dropTarget=0;pointerEvents=0;fillColor=none;top=0;left=0;bottom=0;right=0;points=[[0,0.5],[1,0.5]];portConstraint=eastwest;" vertex="1" parent="8T0tq_az6n-a0p4zAt-5-14">
          <mxGeometry y="120" width="180" height="30" as="geometry" />
        </mxCell>
        <mxCell id="8T0tq_az6n-a0p4zAt-5-25" value="" style="shape=partialRectangle;connectable=0;fillColor=none;top=0;left=0;bottom=0;right=0;editable=1;overflow=hidden;" vertex="1" parent="8T0tq_az6n-a0p4zAt-5-24">
          <mxGeometry width="30" height="30" as="geometry" />
        </mxCell>
        <mxCell id="8T0tq_az6n-a0p4zAt-5-26" value="商品画像" style="shape=partialRectangle;connectable=0;fillColor=none;top=0;left=0;bottom=0;right=0;align=left;spacingLeft=6;overflow=hidden;" vertex="1" parent="8T0tq_az6n-a0p4zAt-5-24">
          <mxGeometry x="30" width="150" height="30" as="geometry" />
        </mxCell>
        <mxCell id="8T0tq_az6n-a0p4zAt-5-27" value="配送先" style="shape=table;startSize=30;container=1;collapsible=1;childLayout=tableLayout;fixedRows=1;rowLines=0;fontStyle=1;align=center;resizeLast=1;" vertex="1" parent="1">
          <mxGeometry x="500" y="40" width="180" height="330" as="geometry" />
        </mxCell>
        <mxCell id="8T0tq_az6n-a0p4zAt-5-28" value="" style="shape=partialRectangle;collapsible=0;dropTarget=0;pointerEvents=0;fillColor=none;top=0;left=0;bottom=1;right=0;points=[[0,0.5],[1,0.5]];portConstraint=eastwest;" vertex="1" parent="8T0tq_az6n-a0p4zAt-5-27">
          <mxGeometry y="30" width="180" height="30" as="geometry" />
        </mxCell>
        <mxCell id="8T0tq_az6n-a0p4zAt-5-29" value="PK" style="shape=partialRectangle;connectable=0;fillColor=none;top=0;left=0;bottom=0;right=0;fontStyle=1;overflow=hidden;" vertex="1" parent="8T0tq_az6n-a0p4zAt-5-28">
          <mxGeometry width="30" height="30" as="geometry" />
        </mxCell>
        <mxCell id="8T0tq_az6n-a0p4zAt-5-30" value="UniqueID" style="shape=partialRectangle;connectable=0;fillColor=none;top=0;left=0;bottom=0;right=0;align=left;spacingLeft=6;fontStyle=5;overflow=hidden;" vertex="1" parent="8T0tq_az6n-a0p4zAt-5-28">
          <mxGeometry x="30" width="150" height="30" as="geometry" />
        </mxCell>
        <mxCell id="8T0tq_az6n-a0p4zAt-5-31" value="" style="shape=partialRectangle;collapsible=0;dropTarget=0;pointerEvents=0;fillColor=none;top=0;left=0;bottom=0;right=0;points=[[0,0.5],[1,0.5]];portConstraint=eastwest;" vertex="1" parent="8T0tq_az6n-a0p4zAt-5-27">
          <mxGeometry y="60" width="180" height="30" as="geometry" />
        </mxCell>
        <mxCell id="8T0tq_az6n-a0p4zAt-5-32" value="FK" style="shape=partialRectangle;connectable=0;fillColor=none;top=0;left=0;bottom=0;right=0;editable=1;overflow=hidden;" vertex="1" parent="8T0tq_az6n-a0p4zAt-5-31">
          <mxGeometry width="30" height="30" as="geometry" />
        </mxCell>
        <mxCell id="8T0tq_az6n-a0p4zAt-5-33" value="User.id" style="shape=partialRectangle;connectable=0;fillColor=none;top=0;left=0;bottom=0;right=0;align=left;spacingLeft=6;overflow=hidden;" vertex="1" parent="8T0tq_az6n-a0p4zAt-5-31">
          <mxGeometry x="30" width="150" height="30" as="geometry" />
        </mxCell>
        <mxCell id="8T0tq_az6n-a0p4zAt-5-34" value="" style="shape=partialRectangle;collapsible=0;dropTarget=0;pointerEvents=0;fillColor=none;top=0;left=0;bottom=0;right=0;points=[[0,0.5],[1,0.5]];portConstraint=eastwest;" vertex="1" parent="8T0tq_az6n-a0p4zAt-5-27">
          <mxGeometry y="90" width="180" height="30" as="geometry" />
        </mxCell>
        <mxCell id="8T0tq_az6n-a0p4zAt-5-35" value="" style="shape=partialRectangle;connectable=0;fillColor=none;top=0;left=0;bottom=0;right=0;editable=1;overflow=hidden;" vertex="1" parent="8T0tq_az6n-a0p4zAt-5-34">
          <mxGeometry width="30" height="30" as="geometry" />
        </mxCell>
        <mxCell id="8T0tq_az6n-a0p4zAt-5-36" value="登録日" style="shape=partialRectangle;connectable=0;fillColor=none;top=0;left=0;bottom=0;right=0;align=left;spacingLeft=6;overflow=hidden;" vertex="1" parent="8T0tq_az6n-a0p4zAt-5-34">
          <mxGeometry x="30" width="150" height="30" as="geometry" />
        </mxCell>
        <mxCell id="8T0tq_az6n-a0p4zAt-5-37" value="" style="shape=partialRectangle;collapsible=0;dropTarget=0;pointerEvents=0;fillColor=none;top=0;left=0;bottom=0;right=0;points=[[0,0.5],[1,0.5]];portConstraint=eastwest;" vertex="1" parent="8T0tq_az6n-a0p4zAt-5-27">
          <mxGeometry y="120" width="180" height="30" as="geometry" />
        </mxCell>
        <mxCell id="8T0tq_az6n-a0p4zAt-5-38" value="" style="shape=partialRectangle;connectable=0;fillColor=none;top=0;left=0;bottom=0;right=0;editable=1;overflow=hidden;" vertex="1" parent="8T0tq_az6n-a0p4zAt-5-37">
          <mxGeometry width="30" height="30" as="geometry" />
        </mxCell>
        <mxCell id="8T0tq_az6n-a0p4zAt-5-39" value="更新日" style="shape=partialRectangle;connectable=0;fillColor=none;top=0;left=0;bottom=0;right=0;align=left;spacingLeft=6;overflow=hidden;" vertex="1" parent="8T0tq_az6n-a0p4zAt-5-37">
          <mxGeometry x="30" width="150" height="30" as="geometry" />
        </mxCell>
        <mxCell id="8T0tq_az6n-a0p4zAt-5-42" value="ログインID" style="shape=partialRectangle;connectable=0;fillColor=none;top=0;left=0;bottom=0;right=0;align=left;spacingLeft=6;overflow=hidden;" vertex="1" parent="1">
          <mxGeometry x="80" y="190" width="150" height="30" as="geometry" />
        </mxCell>
        <mxCell id="8T0tq_az6n-a0p4zAt-5-43" value="ログインパスワード" style="shape=partialRectangle;connectable=0;fillColor=none;top=0;left=0;bottom=0;right=0;align=left;spacingLeft=6;overflow=hidden;" vertex="1" parent="1">
          <mxGeometry x="80" y="220" width="150" height="30" as="geometry" />
        </mxCell>
        <mxCell id="8T0tq_az6n-a0p4zAt-5-46" value="注文商品" style="shape=table;startSize=30;container=1;collapsible=1;childLayout=tableLayout;fixedRows=1;rowLines=0;fontStyle=1;align=center;resizeLast=1;" vertex="1" parent="1">
          <mxGeometry x="260" y="560" width="180" height="160" as="geometry" />
        </mxCell>
        <mxCell id="8T0tq_az6n-a0p4zAt-5-47" value="" style="shape=partialRectangle;collapsible=0;dropTarget=0;pointerEvents=0;fillColor=none;top=0;left=0;bottom=1;right=0;points=[[0,0.5],[1,0.5]];portConstraint=eastwest;" vertex="1" parent="8T0tq_az6n-a0p4zAt-5-46">
          <mxGeometry y="30" width="180" height="30" as="geometry" />
        </mxCell>
        <mxCell id="8T0tq_az6n-a0p4zAt-5-48" value="PK" style="shape=partialRectangle;connectable=0;fillColor=none;top=0;left=0;bottom=0;right=0;fontStyle=1;overflow=hidden;" vertex="1" parent="8T0tq_az6n-a0p4zAt-5-47">
          <mxGeometry width="30" height="30" as="geometry" />
        </mxCell>
        <mxCell id="8T0tq_az6n-a0p4zAt-5-49" value="UniqueID" style="shape=partialRectangle;connectable=0;fillColor=none;top=0;left=0;bottom=0;right=0;align=left;spacingLeft=6;fontStyle=5;overflow=hidden;" vertex="1" parent="8T0tq_az6n-a0p4zAt-5-47">
          <mxGeometry x="30" width="150" height="30" as="geometry" />
        </mxCell>
        <mxCell id="8T0tq_az6n-a0p4zAt-5-50" value="" style="shape=partialRectangle;collapsible=0;dropTarget=0;pointerEvents=0;fillColor=none;top=0;left=0;bottom=0;right=0;points=[[0,0.5],[1,0.5]];portConstraint=eastwest;" vertex="1" parent="8T0tq_az6n-a0p4zAt-5-46">
          <mxGeometry y="60" width="180" height="30" as="geometry" />
        </mxCell>
        <mxCell id="8T0tq_az6n-a0p4zAt-5-51" value="" style="shape=partialRectangle;connectable=0;fillColor=none;top=0;left=0;bottom=0;right=0;editable=1;overflow=hidden;" vertex="1" parent="8T0tq_az6n-a0p4zAt-5-50">
          <mxGeometry width="30" height="30" as="geometry" />
        </mxCell>
        <mxCell id="8T0tq_az6n-a0p4zAt-5-52" value="Row 1" style="shape=partialRectangle;connectable=0;fillColor=none;top=0;left=0;bottom=0;right=0;align=left;spacingLeft=6;overflow=hidden;" vertex="1" parent="8T0tq_az6n-a0p4zAt-5-50">
          <mxGeometry x="30" width="150" height="30" as="geometry" />
        </mxCell>
        <mxCell id="8T0tq_az6n-a0p4zAt-5-53" value="" style="shape=partialRectangle;collapsible=0;dropTarget=0;pointerEvents=0;fillColor=none;top=0;left=0;bottom=0;right=0;points=[[0,0.5],[1,0.5]];portConstraint=eastwest;" vertex="1" parent="8T0tq_az6n-a0p4zAt-5-46">
          <mxGeometry y="90" width="180" height="30" as="geometry" />
        </mxCell>
        <mxCell id="8T0tq_az6n-a0p4zAt-5-54" value="" style="shape=partialRectangle;connectable=0;fillColor=none;top=0;left=0;bottom=0;right=0;editable=1;overflow=hidden;" vertex="1" parent="8T0tq_az6n-a0p4zAt-5-53">
          <mxGeometry width="30" height="30" as="geometry" />
        </mxCell>
        <mxCell id="8T0tq_az6n-a0p4zAt-5-55" value="Row 2" style="shape=partialRectangle;connectable=0;fillColor=none;top=0;left=0;bottom=0;right=0;align=left;spacingLeft=6;overflow=hidden;" vertex="1" parent="8T0tq_az6n-a0p4zAt-5-53">
          <mxGeometry x="30" width="150" height="30" as="geometry" />
        </mxCell>
        <mxCell id="8T0tq_az6n-a0p4zAt-5-56" value="" style="shape=partialRectangle;collapsible=0;dropTarget=0;pointerEvents=0;fillColor=none;top=0;left=0;bottom=0;right=0;points=[[0,0.5],[1,0.5]];portConstraint=eastwest;" vertex="1" parent="8T0tq_az6n-a0p4zAt-5-46">
          <mxGeometry y="120" width="180" height="30" as="geometry" />
        </mxCell>
        <mxCell id="8T0tq_az6n-a0p4zAt-5-57" value="" style="shape=partialRectangle;connectable=0;fillColor=none;top=0;left=0;bottom=0;right=0;editable=1;overflow=hidden;" vertex="1" parent="8T0tq_az6n-a0p4zAt-5-56">
          <mxGeometry width="30" height="30" as="geometry" />
        </mxCell>
        <mxCell id="8T0tq_az6n-a0p4zAt-5-58" value="Row 3" style="shape=partialRectangle;connectable=0;fillColor=none;top=0;left=0;bottom=0;right=0;align=left;spacingLeft=6;overflow=hidden;" vertex="1" parent="8T0tq_az6n-a0p4zAt-5-56">
          <mxGeometry x="30" width="150" height="30" as="geometry" />
        </mxCell>
        <mxCell id="8T0tq_az6n-a0p4zAt-5-59" value="商品ジャンル" style="shape=table;startSize=30;container=1;collapsible=1;childLayout=tableLayout;fixedRows=1;rowLines=0;fontStyle=1;align=center;resizeLast=1;" vertex="1" parent="1">
          <mxGeometry x="490" y="560" width="180" height="160" as="geometry" />
        </mxCell>
        <mxCell id="8T0tq_az6n-a0p4zAt-5-60" value="" style="shape=partialRectangle;collapsible=0;dropTarget=0;pointerEvents=0;fillColor=none;top=0;left=0;bottom=1;right=0;points=[[0,0.5],[1,0.5]];portConstraint=eastwest;" vertex="1" parent="8T0tq_az6n-a0p4zAt-5-59">
          <mxGeometry y="30" width="180" height="30" as="geometry" />
        </mxCell>
        <mxCell id="8T0tq_az6n-a0p4zAt-5-61" value="PK" style="shape=partialRectangle;connectable=0;fillColor=none;top=0;left=0;bottom=0;right=0;fontStyle=1;overflow=hidden;" vertex="1" parent="8T0tq_az6n-a0p4zAt-5-60">
          <mxGeometry width="30" height="30" as="geometry" />
        </mxCell>
        <mxCell id="8T0tq_az6n-a0p4zAt-5-62" value="UniqueID" style="shape=partialRectangle;connectable=0;fillColor=none;top=0;left=0;bottom=0;right=0;align=left;spacingLeft=6;fontStyle=5;overflow=hidden;" vertex="1" parent="8T0tq_az6n-a0p4zAt-5-60">
          <mxGeometry x="30" width="150" height="30" as="geometry" />
        </mxCell>
        <mxCell id="8T0tq_az6n-a0p4zAt-5-63" value="" style="shape=partialRectangle;collapsible=0;dropTarget=0;pointerEvents=0;fillColor=none;top=0;left=0;bottom=0;right=0;points=[[0,0.5],[1,0.5]];portConstraint=eastwest;" vertex="1" parent="8T0tq_az6n-a0p4zAt-5-59">
          <mxGeometry y="60" width="180" height="30" as="geometry" />
        </mxCell>
        <mxCell id="8T0tq_az6n-a0p4zAt-5-64" value="" style="shape=partialRectangle;connectable=0;fillColor=none;top=0;left=0;bottom=0;right=0;editable=1;overflow=hidden;" vertex="1" parent="8T0tq_az6n-a0p4zAt-5-63">
          <mxGeometry width="30" height="30" as="geometry" />
        </mxCell>
        <mxCell id="8T0tq_az6n-a0p4zAt-5-65" value="Row 1" style="shape=partialRectangle;connectable=0;fillColor=none;top=0;left=0;bottom=0;right=0;align=left;spacingLeft=6;overflow=hidden;" vertex="1" parent="8T0tq_az6n-a0p4zAt-5-63">
          <mxGeometry x="30" width="150" height="30" as="geometry" />
        </mxCell>
        <mxCell id="8T0tq_az6n-a0p4zAt-5-66" value="" style="shape=partialRectangle;collapsible=0;dropTarget=0;pointerEvents=0;fillColor=none;top=0;left=0;bottom=0;right=0;points=[[0,0.5],[1,0.5]];portConstraint=eastwest;" vertex="1" parent="8T0tq_az6n-a0p4zAt-5-59">
          <mxGeometry y="90" width="180" height="30" as="geometry" />
        </mxCell>
        <mxCell id="8T0tq_az6n-a0p4zAt-5-67" value="" style="shape=partialRectangle;connectable=0;fillColor=none;top=0;left=0;bottom=0;right=0;editable=1;overflow=hidden;" vertex="1" parent="8T0tq_az6n-a0p4zAt-5-66">
          <mxGeometry width="30" height="30" as="geometry" />
        </mxCell>
        <mxCell id="8T0tq_az6n-a0p4zAt-5-68" value="Row 2" style="shape=partialRectangle;connectable=0;fillColor=none;top=0;left=0;bottom=0;right=0;align=left;spacingLeft=6;overflow=hidden;" vertex="1" parent="8T0tq_az6n-a0p4zAt-5-66">
          <mxGeometry x="30" width="150" height="30" as="geometry" />
        </mxCell>
        <mxCell id="8T0tq_az6n-a0p4zAt-5-69" value="" style="shape=partialRectangle;collapsible=0;dropTarget=0;pointerEvents=0;fillColor=none;top=0;left=0;bottom=0;right=0;points=[[0,0.5],[1,0.5]];portConstraint=eastwest;" vertex="1" parent="8T0tq_az6n-a0p4zAt-5-59">
          <mxGeometry y="120" width="180" height="30" as="geometry" />
        </mxCell>
        <mxCell id="8T0tq_az6n-a0p4zAt-5-70" value="" style="shape=partialRectangle;connectable=0;fillColor=none;top=0;left=0;bottom=0;right=0;editable=1;overflow=hidden;" vertex="1" parent="8T0tq_az6n-a0p4zAt-5-69">
          <mxGeometry width="30" height="30" as="geometry" />
        </mxCell>
        <mxCell id="8T0tq_az6n-a0p4zAt-5-71" value="Row 3" style="shape=partialRectangle;connectable=0;fillColor=none;top=0;left=0;bottom=0;right=0;align=left;spacingLeft=6;overflow=hidden;" vertex="1" parent="8T0tq_az6n-a0p4zAt-5-69">
          <mxGeometry x="30" width="150" height="30" as="geometry" />
        </mxCell>
        <mxCell id="8T0tq_az6n-a0p4zAt-5-72" value="注文詳細" style="shape=table;startSize=30;container=1;collapsible=1;childLayout=tableLayout;fixedRows=1;rowLines=0;fontStyle=1;align=center;resizeLast=1;" vertex="1" parent="1">
          <mxGeometry x="50" y="350" width="180" height="160" as="geometry" />
        </mxCell>
        <mxCell id="8T0tq_az6n-a0p4zAt-5-73" value="" style="shape=partialRectangle;collapsible=0;dropTarget=0;pointerEvents=0;fillColor=none;top=0;left=0;bottom=1;right=0;points=[[0,0.5],[1,0.5]];portConstraint=eastwest;" vertex="1" parent="8T0tq_az6n-a0p4zAt-5-72">
          <mxGeometry y="30" width="180" height="30" as="geometry" />
        </mxCell>
        <mxCell id="8T0tq_az6n-a0p4zAt-5-74" value="PK" style="shape=partialRectangle;connectable=0;fillColor=none;top=0;left=0;bottom=0;right=0;fontStyle=1;overflow=hidden;" vertex="1" parent="8T0tq_az6n-a0p4zAt-5-73">
          <mxGeometry width="30" height="30" as="geometry" />
        </mxCell>
        <mxCell id="8T0tq_az6n-a0p4zAt-5-75" value="UniqueID" style="shape=partialRectangle;connectable=0;fillColor=none;top=0;left=0;bottom=0;right=0;align=left;spacingLeft=6;fontStyle=5;overflow=hidden;" vertex="1" parent="8T0tq_az6n-a0p4zAt-5-73">
          <mxGeometry x="30" width="150" height="30" as="geometry" />
        </mxCell>
        <mxCell id="8T0tq_az6n-a0p4zAt-5-76" value="" style="shape=partialRectangle;collapsible=0;dropTarget=0;pointerEvents=0;fillColor=none;top=0;left=0;bottom=0;right=0;points=[[0,0.5],[1,0.5]];portConstraint=eastwest;" vertex="1" parent="8T0tq_az6n-a0p4zAt-5-72">
          <mxGeometry y="60" width="180" height="30" as="geometry" />
        </mxCell>
        <mxCell id="8T0tq_az6n-a0p4zAt-5-77" value="" style="shape=partialRectangle;connectable=0;fillColor=none;top=0;left=0;bottom=0;right=0;editable=1;overflow=hidden;" vertex="1" parent="8T0tq_az6n-a0p4zAt-5-76">
          <mxGeometry width="30" height="30" as="geometry" />
        </mxCell>
        <mxCell id="8T0tq_az6n-a0p4zAt-5-78" value="ユーザーid" style="shape=partialRectangle;connectable=0;fillColor=none;top=0;left=0;bottom=0;right=0;align=left;spacingLeft=6;overflow=hidden;" vertex="1" parent="8T0tq_az6n-a0p4zAt-5-76">
          <mxGeometry x="30" width="150" height="30" as="geometry" />
        </mxCell>
        <mxCell id="8T0tq_az6n-a0p4zAt-5-79" value="" style="shape=partialRectangle;collapsible=0;dropTarget=0;pointerEvents=0;fillColor=none;top=0;left=0;bottom=0;right=0;points=[[0,0.5],[1,0.5]];portConstraint=eastwest;" vertex="1" parent="8T0tq_az6n-a0p4zAt-5-72">
          <mxGeometry y="90" width="180" height="30" as="geometry" />
        </mxCell>
        <mxCell id="8T0tq_az6n-a0p4zAt-5-80" value="" style="shape=partialRectangle;connectable=0;fillColor=none;top=0;left=0;bottom=0;right=0;editable=1;overflow=hidden;" vertex="1" parent="8T0tq_az6n-a0p4zAt-5-79">
          <mxGeometry width="30" height="30" as="geometry" />
        </mxCell>
        <mxCell id="8T0tq_az6n-a0p4zAt-5-81" value="配送先id" style="shape=partialRectangle;connectable=0;fillColor=none;top=0;left=0;bottom=0;right=0;align=left;spacingLeft=6;overflow=hidden;" vertex="1" parent="8T0tq_az6n-a0p4zAt-5-79">
          <mxGeometry x="30" width="150" height="30" as="geometry" />
        </mxCell>
        <mxCell id="8T0tq_az6n-a0p4zAt-5-82" value="" style="shape=partialRectangle;collapsible=0;dropTarget=0;pointerEvents=0;fillColor=none;top=0;left=0;bottom=0;right=0;points=[[0,0.5],[1,0.5]];portConstraint=eastwest;" vertex="1" parent="8T0tq_az6n-a0p4zAt-5-72">
          <mxGeometry y="120" width="180" height="30" as="geometry" />
        </mxCell>
        <mxCell id="8T0tq_az6n-a0p4zAt-5-83" value="" style="shape=partialRectangle;connectable=0;fillColor=none;top=0;left=0;bottom=0;right=0;editable=1;overflow=hidden;" vertex="1" parent="8T0tq_az6n-a0p4zAt-5-82">
          <mxGeometry width="30" height="30" as="geometry" />
        </mxCell>
        <mxCell id="8T0tq_az6n-a0p4zAt-5-84" value="カートid" style="shape=partialRectangle;connectable=0;fillColor=none;top=0;left=0;bottom=0;right=0;align=left;spacingLeft=6;overflow=hidden;" vertex="1" parent="8T0tq_az6n-a0p4zAt-5-82">
          <mxGeometry x="30" width="150" height="30" as="geometry" />
        </mxCell>
        <mxCell id="8T0tq_az6n-a0p4zAt-5-85" value="入金情報" style="shape=table;startSize=30;container=1;collapsible=1;childLayout=tableLayout;fixedRows=1;rowLines=0;fontStyle=1;align=center;resizeLast=1;" vertex="1" parent="1">
          <mxGeometry x="260" y="745" width="180" height="160" as="geometry" />
        </mxCell>
        <mxCell id="8T0tq_az6n-a0p4zAt-5-86" value="" style="shape=partialRectangle;collapsible=0;dropTarget=0;pointerEvents=0;fillColor=none;top=0;left=0;bottom=1;right=0;points=[[0,0.5],[1,0.5]];portConstraint=eastwest;" vertex="1" parent="8T0tq_az6n-a0p4zAt-5-85">
          <mxGeometry y="30" width="180" height="30" as="geometry" />
        </mxCell>
        <mxCell id="8T0tq_az6n-a0p4zAt-5-87" value="PK" style="shape=partialRectangle;connectable=0;fillColor=none;top=0;left=0;bottom=0;right=0;fontStyle=1;overflow=hidden;" vertex="1" parent="8T0tq_az6n-a0p4zAt-5-86">
          <mxGeometry width="30" height="30" as="geometry" />
        </mxCell>
        <mxCell id="8T0tq_az6n-a0p4zAt-5-88" value="UniqueID" style="shape=partialRectangle;connectable=0;fillColor=none;top=0;left=0;bottom=0;right=0;align=left;spacingLeft=6;fontStyle=5;overflow=hidden;" vertex="1" parent="8T0tq_az6n-a0p4zAt-5-86">
          <mxGeometry x="30" width="150" height="30" as="geometry" />
        </mxCell>
        <mxCell id="8T0tq_az6n-a0p4zAt-5-89" value="" style="shape=partialRectangle;collapsible=0;dropTarget=0;pointerEvents=0;fillColor=none;top=0;left=0;bottom=0;right=0;points=[[0,0.5],[1,0.5]];portConstraint=eastwest;" vertex="1" parent="8T0tq_az6n-a0p4zAt-5-85">
          <mxGeometry y="60" width="180" height="30" as="geometry" />
        </mxCell>
        <mxCell id="8T0tq_az6n-a0p4zAt-5-90" value="" style="shape=partialRectangle;connectable=0;fillColor=none;top=0;left=0;bottom=0;right=0;editable=1;overflow=hidden;" vertex="1" parent="8T0tq_az6n-a0p4zAt-5-89">
          <mxGeometry width="30" height="30" as="geometry" />
        </mxCell>
        <mxCell id="8T0tq_az6n-a0p4zAt-5-91" value="Row 1" style="shape=partialRectangle;connectable=0;fillColor=none;top=0;left=0;bottom=0;right=0;align=left;spacingLeft=6;overflow=hidden;" vertex="1" parent="8T0tq_az6n-a0p4zAt-5-89">
          <mxGeometry x="30" width="150" height="30" as="geometry" />
        </mxCell>
        <mxCell id="8T0tq_az6n-a0p4zAt-5-92" value="" style="shape=partialRectangle;collapsible=0;dropTarget=0;pointerEvents=0;fillColor=none;top=0;left=0;bottom=0;right=0;points=[[0,0.5],[1,0.5]];portConstraint=eastwest;" vertex="1" parent="8T0tq_az6n-a0p4zAt-5-85">
          <mxGeometry y="90" width="180" height="30" as="geometry" />
        </mxCell>
        <mxCell id="8T0tq_az6n-a0p4zAt-5-93" value="" style="shape=partialRectangle;connectable=0;fillColor=none;top=0;left=0;bottom=0;right=0;editable=1;overflow=hidden;" vertex="1" parent="8T0tq_az6n-a0p4zAt-5-92">
          <mxGeometry width="30" height="30" as="geometry" />
        </mxCell>
        <mxCell id="8T0tq_az6n-a0p4zAt-5-94" value="Row 2" style="shape=partialRectangle;connectable=0;fillColor=none;top=0;left=0;bottom=0;right=0;align=left;spacingLeft=6;overflow=hidden;" vertex="1" parent="8T0tq_az6n-a0p4zAt-5-92">
          <mxGeometry x="30" width="150" height="30" as="geometry" />
        </mxCell>
        <mxCell id="8T0tq_az6n-a0p4zAt-5-95" value="" style="shape=partialRectangle;collapsible=0;dropTarget=0;pointerEvents=0;fillColor=none;top=0;left=0;bottom=0;right=0;points=[[0,0.5],[1,0.5]];portConstraint=eastwest;" vertex="1" parent="8T0tq_az6n-a0p4zAt-5-85">
          <mxGeometry y="120" width="180" height="30" as="geometry" />
        </mxCell>
        <mxCell id="8T0tq_az6n-a0p4zAt-5-96" value="" style="shape=partialRectangle;connectable=0;fillColor=none;top=0;left=0;bottom=0;right=0;editable=1;overflow=hidden;" vertex="1" parent="8T0tq_az6n-a0p4zAt-5-95">
          <mxGeometry width="30" height="30" as="geometry" />
        </mxCell>
        <mxCell id="8T0tq_az6n-a0p4zAt-5-97" value="Row 3" style="shape=partialRectangle;connectable=0;fillColor=none;top=0;left=0;bottom=0;right=0;align=left;spacingLeft=6;overflow=hidden;" vertex="1" parent="8T0tq_az6n-a0p4zAt-5-95">
          <mxGeometry x="30" width="150" height="30" as="geometry" />
        </mxCell>
        <mxCell id="8T0tq_az6n-a0p4zAt-5-98" value="発送状況" style="shape=table;startSize=30;container=1;collapsible=1;childLayout=tableLayout;fixedRows=1;rowLines=0;fontStyle=1;align=center;resizeLast=1;" vertex="1" parent="1">
          <mxGeometry x="490" y="740" width="180" height="160" as="geometry" />
        </mxCell>
        <mxCell id="8T0tq_az6n-a0p4zAt-5-99" value="" style="shape=partialRectangle;collapsible=0;dropTarget=0;pointerEvents=0;fillColor=none;top=0;left=0;bottom=1;right=0;points=[[0,0.5],[1,0.5]];portConstraint=eastwest;" vertex="1" parent="8T0tq_az6n-a0p4zAt-5-98">
          <mxGeometry y="30" width="180" height="30" as="geometry" />
        </mxCell>
        <mxCell id="8T0tq_az6n-a0p4zAt-5-100" value="PK" style="shape=partialRectangle;connectable=0;fillColor=none;top=0;left=0;bottom=0;right=0;fontStyle=1;overflow=hidden;" vertex="1" parent="8T0tq_az6n-a0p4zAt-5-99">
          <mxGeometry width="30" height="30" as="geometry" />
        </mxCell>
        <mxCell id="8T0tq_az6n-a0p4zAt-5-101" value="UniqueID" style="shape=partialRectangle;connectable=0;fillColor=none;top=0;left=0;bottom=0;right=0;align=left;spacingLeft=6;fontStyle=5;overflow=hidden;" vertex="1" parent="8T0tq_az6n-a0p4zAt-5-99">
          <mxGeometry x="30" width="150" height="30" as="geometry" />
        </mxCell>
        <mxCell id="8T0tq_az6n-a0p4zAt-5-102" value="" style="shape=partialRectangle;collapsible=0;dropTarget=0;pointerEvents=0;fillColor=none;top=0;left=0;bottom=0;right=0;points=[[0,0.5],[1,0.5]];portConstraint=eastwest;" vertex="1" parent="8T0tq_az6n-a0p4zAt-5-98">
          <mxGeometry y="60" width="180" height="30" as="geometry" />
        </mxCell>
        <mxCell id="8T0tq_az6n-a0p4zAt-5-103" value="" style="shape=partialRectangle;connectable=0;fillColor=none;top=0;left=0;bottom=0;right=0;editable=1;overflow=hidden;" vertex="1" parent="8T0tq_az6n-a0p4zAt-5-102">
          <mxGeometry width="30" height="30" as="geometry" />
        </mxCell>
        <mxCell id="8T0tq_az6n-a0p4zAt-5-104" value="Row 1" style="shape=partialRectangle;connectable=0;fillColor=none;top=0;left=0;bottom=0;right=0;align=left;spacingLeft=6;overflow=hidden;" vertex="1" parent="8T0tq_az6n-a0p4zAt-5-102">
          <mxGeometry x="30" width="150" height="30" as="geometry" />
        </mxCell>
        <mxCell id="8T0tq_az6n-a0p4zAt-5-105" value="" style="shape=partialRectangle;collapsible=0;dropTarget=0;pointerEvents=0;fillColor=none;top=0;left=0;bottom=0;right=0;points=[[0,0.5],[1,0.5]];portConstraint=eastwest;" vertex="1" parent="8T0tq_az6n-a0p4zAt-5-98">
          <mxGeometry y="90" width="180" height="30" as="geometry" />
        </mxCell>
        <mxCell id="8T0tq_az6n-a0p4zAt-5-106" value="" style="shape=partialRectangle;connectable=0;fillColor=none;top=0;left=0;bottom=0;right=0;editable=1;overflow=hidden;" vertex="1" parent="8T0tq_az6n-a0p4zAt-5-105">
          <mxGeometry width="30" height="30" as="geometry" />
        </mxCell>
        <mxCell id="8T0tq_az6n-a0p4zAt-5-107" value="Row 2" style="shape=partialRectangle;connectable=0;fillColor=none;top=0;left=0;bottom=0;right=0;align=left;spacingLeft=6;overflow=hidden;" vertex="1" parent="8T0tq_az6n-a0p4zAt-5-105">
          <mxGeometry x="30" width="150" height="30" as="geometry" />
        </mxCell>
        <mxCell id="8T0tq_az6n-a0p4zAt-5-108" value="" style="shape=partialRectangle;collapsible=0;dropTarget=0;pointerEvents=0;fillColor=none;top=0;left=0;bottom=0;right=0;points=[[0,0.5],[1,0.5]];portConstraint=eastwest;" vertex="1" parent="8T0tq_az6n-a0p4zAt-5-98">
          <mxGeometry y="120" width="180" height="30" as="geometry" />
        </mxCell>
        <mxCell id="8T0tq_az6n-a0p4zAt-5-109" value="" style="shape=partialRectangle;connectable=0;fillColor=none;top=0;left=0;bottom=0;right=0;editable=1;overflow=hidden;" vertex="1" parent="8T0tq_az6n-a0p4zAt-5-108">
          <mxGeometry width="30" height="30" as="geometry" />
        </mxCell>
        <mxCell id="8T0tq_az6n-a0p4zAt-5-110" value="Row 3" style="shape=partialRectangle;connectable=0;fillColor=none;top=0;left=0;bottom=0;right=0;align=left;spacingLeft=6;overflow=hidden;" vertex="1" parent="8T0tq_az6n-a0p4zAt-5-108">
          <mxGeometry x="30" width="150" height="30" as="geometry" />
        </mxCell>
        <mxCell id="8T0tq_az6n-a0p4zAt-5-111" value="カート状況" style="shape=table;startSize=30;container=1;collapsible=1;childLayout=tableLayout;fixedRows=1;rowLines=0;fontStyle=1;align=center;resizeLast=1;" vertex="1" parent="1">
          <mxGeometry x="50" y="540" width="180" height="160" as="geometry" />
        </mxCell>
        <mxCell id="8T0tq_az6n-a0p4zAt-5-112" value="" style="shape=partialRectangle;collapsible=0;dropTarget=0;pointerEvents=0;fillColor=none;top=0;left=0;bottom=1;right=0;points=[[0,0.5],[1,0.5]];portConstraint=eastwest;" vertex="1" parent="8T0tq_az6n-a0p4zAt-5-111">
          <mxGeometry y="30" width="180" height="30" as="geometry" />
        </mxCell>
        <mxCell id="8T0tq_az6n-a0p4zAt-5-113" value="PK" style="shape=partialRectangle;connectable=0;fillColor=none;top=0;left=0;bottom=0;right=0;fontStyle=1;overflow=hidden;" vertex="1" parent="8T0tq_az6n-a0p4zAt-5-112">
          <mxGeometry width="30" height="30" as="geometry" />
        </mxCell>
        <mxCell id="8T0tq_az6n-a0p4zAt-5-114" value="UniqueID" style="shape=partialRectangle;connectable=0;fillColor=none;top=0;left=0;bottom=0;right=0;align=left;spacingLeft=6;fontStyle=5;overflow=hidden;" vertex="1" parent="8T0tq_az6n-a0p4zAt-5-112">
          <mxGeometry x="30" width="150" height="30" as="geometry" />
        </mxCell>
        <mxCell id="8T0tq_az6n-a0p4zAt-5-115" value="" style="shape=partialRectangle;collapsible=0;dropTarget=0;pointerEvents=0;fillColor=none;top=0;left=0;bottom=0;right=0;points=[[0,0.5],[1,0.5]];portConstraint=eastwest;" vertex="1" parent="8T0tq_az6n-a0p4zAt-5-111">
          <mxGeometry y="60" width="180" height="30" as="geometry" />
        </mxCell>
        <mxCell id="8T0tq_az6n-a0p4zAt-5-116" value="" style="shape=partialRectangle;connectable=0;fillColor=none;top=0;left=0;bottom=0;right=0;editable=1;overflow=hidden;" vertex="1" parent="8T0tq_az6n-a0p4zAt-5-115">
          <mxGeometry width="30" height="30" as="geometry" />
        </mxCell>
        <mxCell id="8T0tq_az6n-a0p4zAt-5-117" value="Row 1" style="shape=partialRectangle;connectable=0;fillColor=none;top=0;left=0;bottom=0;right=0;align=left;spacingLeft=6;overflow=hidden;" vertex="1" parent="8T0tq_az6n-a0p4zAt-5-115">
          <mxGeometry x="30" width="150" height="30" as="geometry" />
        </mxCell>
        <mxCell id="8T0tq_az6n-a0p4zAt-5-118" value="" style="shape=partialRectangle;collapsible=0;dropTarget=0;pointerEvents=0;fillColor=none;top=0;left=0;bottom=0;right=0;points=[[0,0.5],[1,0.5]];portConstraint=eastwest;" vertex="1" parent="8T0tq_az6n-a0p4zAt-5-111">
          <mxGeometry y="90" width="180" height="30" as="geometry" />
        </mxCell>
        <mxCell id="8T0tq_az6n-a0p4zAt-5-119" value="" style="shape=partialRectangle;connectable=0;fillColor=none;top=0;left=0;bottom=0;right=0;editable=1;overflow=hidden;" vertex="1" parent="8T0tq_az6n-a0p4zAt-5-118">
          <mxGeometry width="30" height="30" as="geometry" />
        </mxCell>
        <mxCell id="8T0tq_az6n-a0p4zAt-5-120" value="Row 2" style="shape=partialRectangle;connectable=0;fillColor=none;top=0;left=0;bottom=0;right=0;align=left;spacingLeft=6;overflow=hidden;" vertex="1" parent="8T0tq_az6n-a0p4zAt-5-118">
          <mxGeometry x="30" width="150" height="30" as="geometry" />
        </mxCell>
        <mxCell id="8T0tq_az6n-a0p4zAt-5-121" value="" style="shape=partialRectangle;collapsible=0;dropTarget=0;pointerEvents=0;fillColor=none;top=0;left=0;bottom=0;right=0;points=[[0,0.5],[1,0.5]];portConstraint=eastwest;" vertex="1" parent="8T0tq_az6n-a0p4zAt-5-111">
          <mxGeometry y="120" width="180" height="30" as="geometry" />
        </mxCell>
        <mxCell id="8T0tq_az6n-a0p4zAt-5-122" value="" style="shape=partialRectangle;connectable=0;fillColor=none;top=0;left=0;bottom=0;right=0;editable=1;overflow=hidden;" vertex="1" parent="8T0tq_az6n-a0p4zAt-5-121">
          <mxGeometry width="30" height="30" as="geometry" />
        </mxCell>
        <mxCell id="8T0tq_az6n-a0p4zAt-5-123" value="Row 3" style="shape=partialRectangle;connectable=0;fillColor=none;top=0;left=0;bottom=0;right=0;align=left;spacingLeft=6;overflow=hidden;" vertex="1" parent="8T0tq_az6n-a0p4zAt-5-121">
          <mxGeometry x="30" width="150" height="30" as="geometry" />
        </mxCell>
        <mxCell id="8T0tq_az6n-a0p4zAt-5-126" value="郵便番号" style="shape=partialRectangle;connectable=0;fillColor=none;top=0;left=0;bottom=0;right=0;align=left;spacingLeft=6;overflow=hidden;" vertex="1" parent="1">
          <mxGeometry x="530" y="190" width="150" height="30" as="geometry" />
        </mxCell>
        <mxCell id="8T0tq_az6n-a0p4zAt-5-127" value="住所" style="shape=partialRectangle;connectable=0;fillColor=none;top=0;left=0;bottom=0;right=0;align=left;spacingLeft=6;overflow=hidden;" vertex="1" parent="1">
          <mxGeometry x="530" y="220" width="150" height="30" as="geometry" />
        </mxCell>
        <mxCell id="8T0tq_az6n-a0p4zAt-5-128" value="氏名" style="shape=partialRectangle;connectable=0;fillColor=none;top=0;left=0;bottom=0;right=0;align=left;spacingLeft=6;overflow=hidden;" vertex="1" parent="1">
          <mxGeometry x="530" y="250" width="150" height="30" as="geometry" />
        </mxCell>
        <mxCell id="8T0tq_az6n-a0p4zAt-5-129" value="電話番号" style="shape=partialRectangle;connectable=0;fillColor=none;top=0;left=0;bottom=0;right=0;align=left;spacingLeft=6;overflow=hidden;" vertex="1" parent="1">
          <mxGeometry x="530" y="280" width="150" height="30" as="geometry" />
        </mxCell>
        <mxCell id="8T0tq_az6n-a0p4zAt-5-130" value="着希望日" style="shape=partialRectangle;connectable=0;fillColor=none;top=0;left=0;bottom=0;right=0;align=left;spacingLeft=6;overflow=hidden;" vertex="1" parent="1">
          <mxGeometry x="530" y="310" width="150" height="30" as="geometry" />
        </mxCell>
        <mxCell id="8T0tq_az6n-a0p4zAt-5-131" value="商品説明文" style="shape=partialRectangle;connectable=0;fillColor=none;top=0;left=0;bottom=0;right=0;align=left;spacingLeft=6;overflow=hidden;" vertex="1" parent="1">
          <mxGeometry x="290" y="190" width="150" height="30" as="geometry" />
        </mxCell>
        <mxCell id="8T0tq_az6n-a0p4zAt-5-132" value="商品画像" style="shape=partialRectangle;connectable=0;fillColor=none;top=0;left=0;bottom=0;right=0;align=left;spacingLeft=6;overflow=hidden;" vertex="1" parent="1">
          <mxGeometry x="290" y="250" width="150" height="30" as="geometry" />
        </mxCell>
        <mxCell id="8T0tq_az6n-a0p4zAt-5-133" value="商品画像" style="shape=partialRectangle;connectable=0;fillColor=none;top=0;left=0;bottom=0;right=0;align=left;spacingLeft=6;overflow=hidden;" vertex="1" parent="1">
          <mxGeometry x="290" y="220" width="150" height="30" as="geometry" />
        </mxCell>
        <mxCell id="8T0tq_az6n-a0p4zAt-5-134" value="商品画像" style="shape=partialRectangle;connectable=0;fillColor=none;top=0;left=0;bottom=0;right=0;align=left;spacingLeft=6;overflow=hidden;" vertex="1" parent="1">
          <mxGeometry x="290" y="230" width="150" height="30" as="geometry" />
        </mxCell>
        <mxCell id="8T0tq_az6n-a0p4zAt-5-135" value="商品画像" style="shape=partialRectangle;connectable=0;fillColor=none;top=0;left=0;bottom=0;right=0;align=left;spacingLeft=6;overflow=hidden;" vertex="1" parent="1">
          <mxGeometry x="290" y="280" width="150" height="30" as="geometry" />
        </mxCell>
        <mxCell id="8T0tq_az6n-a0p4zAt-5-136" value="商品画像" style="shape=partialRectangle;connectable=0;fillColor=none;top=0;left=0;bottom=0;right=0;align=left;spacingLeft=6;overflow=hidden;" vertex="1" parent="1">
          <mxGeometry x="350" y="220" width="150" height="30" as="geometry" />
        </mxCell>
        <mxCell id="8T0tq_az6n-a0p4zAt-5-137" value="重複は分割する" style="text;html=1;align=center;verticalAlign=middle;resizable=0;points=[];autosize=1;" vertex="1" parent="1">
          <mxGeometry x="50" width="100" height="20" as="geometry" />
        </mxCell>
      </root>
    </mxGraphModel>
  </diagram>
</mxfile>
